{"title":"Hanna.2011.720p.BRRip.x264.Feel-Free","uid":6640526,"size":2828737958,"categoryP":"video","categoryS":"hd___movies","magnet":"?xt=urn:btih:70484642de5837c31fd1fb98c2b97d5e3ff90c34&amp;dn=Hanna.2011.720p.BRRip.x264.Feel-Free&amp;tr=udp%3A%2F%2Ftracker.openbittorrent.com%3A80&amp;tr=udp%3A%2F%2Fopen.demonii.com%3A1337&amp;tr=udp%3A%2F%2Ftracker.coppersurfer.tk%3A6969&amp;tr=udp%3A%2F%2Fexodus.desync.com%3A6969","seeders":0,"leechers":1,"uploader":"SnowCrash03","files":-1,"time":1314726406,"description":"Genre: Action | Crime | Mystery\n Language: English\n IMDb: http://www.imdb.com/title/tt0993842/\n Source: 1080p.DTS.x264-CHD Thanks!\n Subtitles: Romana\n-\n\nFormat : MPEG-4\n Format profile : Base Media\n Codec ID : isom\n File size : 2.63 GiB\n Duration : 1h 51mn\n Overall bit rate : 3 391 Kbps\n \nVideo\n ID : 1\n Format : AVC\n Format/Info : Advanced Video Codec\n Format profile : &lt;a class=&quot;__cf_email__&quot; href=&quot;/cdn-cgi/l/email-protection&quot; data-cfemail=&quot;3c74555b547c7008120d&quot;&gt;[email&amp;#160;protected]&lt;/a&gt;&lt;script cf-hash='f9e31' type=&quot;text/javascript&quot;&gt;\n/* &lt;![CDATA[ */!function(){try{var t=&quot;currentScript&quot;in document?document.currentScript:function(){for(var t=document.getElementsByTagName(&quot;script&quot;),e=t.length;e--;)if(t[e].getAttribute(&quot;cf-hash&quot;))return t[e]}();if(t&amp;&amp;t.previousSibling){var e,r,n,i,c=t.previousSibling,a=c.getAttribute(&quot;data-cfemail&quot;);if(a){for(e=&quot;&quot;,r=parseInt(a.substr(0,2),16),n=2;a.length-n;n+=2)i=parseInt(a.substr(n,2),16)^r,e+=String.fromCharCode(i);e=document.createTextNode(e),c.parentNode.replaceChild(e,c)}}}catch(u){}}();/* ]]&gt; */&lt;/script&gt;\n Format settings, CABAC : Yes\n Format settings, ReFrames : 3 frames\n Codec ID : avc1\n Codec ID/Info : Advanced Video Coding\n Duration : 1h 51mn\n Bit rate mode : Variable\n Bit rate : 3 000 Kbps\n Maximum bit rate : 14.9 Mbps\n Width : 1 280 pixels\n Height : 536 pixels\n Display aspect ratio : 2.35:1\n Frame rate mode : Constant\n Frame rate : 23.976 fps\n Color space : YUV\n Chroma subsampling : 4:2:0\n Bit depth : 8 bits\n Scan type : Progressive\n Bits/(Pixel*Frame) : 0.182\n Stream size : 2.29 GiB (87%)\n Writing library : x264\n \nAudio\n ID : 2\n Format : AAC\n Format/Info : Advanced Audio Codec\n Format version : Version 4\n Format profile : LC\n Format settings, SBR : No\n Codec ID : 40\n Duration : 1h 51mn\n Bit rate mode : Variable\n Bit rate : 432 Kbps\n Maximum bit rate : 548 Kbps\n Channel(s) : 6 channels\n Channel positions : Front: L C R, Side: L R, LFE\n Sampling rate : 48.0 KHz\n Stream size : 343 MiB (13%)\n\n\n\nPlot:\n A 16-year-old who was raised by her father to be the perfect assassin is dispatched on a mission across Europe, tracked by a ruthless intelligence agent and her operatives\n \n","torrent":{"xt":"urn:btih:70484642de5837c31fd1fb98c2b97d5e3ff90c34","amp;dn":"Hanna.2011.720p.BRRip.x264.Feel-Free","amp;tr":["udp%3A%2F%2Ftracker.openbittorrent.com%3A80","udp%3A%2F%2Fopen.demonii.com%3A1337","udp%3A%2F%2Ftracker.coppersurfer.tk%3A6969","udp%3A%2F%2Fexodus.desync.com%3A6969"],"infoHash":"70484642de5837c31fd1fb98c2b97d5e3ff90c34","infoHashBuffer":{"type":"Buffer","data":[112,72,70,66,222,88,55,195,31,209,251,152,194,185,125,94,63,249,12,52]},"announce":[],"urlList":[]}}